<svg width="200" height="52" viewBox="0 0 200 52" fill="none" xmlns="http://www.w3.org/2000/svg">
  <defs>
    <linearGradient id="su-grad" x1="0%" y1="0%" x2="100%" y2="100%">
      <stop offset="0%" stop-color="#6CEB42"/>
      <stop offset="100%" stop-color="#40B2F9"/>
    </linearGradient>
  </defs>
  <rect x="0" y="0" width="52" height="52" rx="14" fill="url(#su-grad)" fill-opacity="0.12"/>
  <path d="M26 10C19.5 10 14.5 15 14.5 21.5C14.5 30.5 26 42 26 42C26 42 37.5 30.5 37.5 21.5C37.5 15 32.5 10 26 10Z" fill="#6CEB42"/>
  <path d="M26 16C22.5 16 19.5 19 19.5 22.5C19.5 27 26 34 26 34C26 34 32.5 27 32.5 22.5C32.5 19 29.5 16 26 16Z" fill="white"/>
  <circle cx="38" cy="14" r="9" fill="#40B2F9"/>
  <path d="M38 10.5V17.5M34.5 14H41.5" stroke="white" stroke-width="2" stroke-linecap="round"/>
  <text x="60" y="22" font-family="'Plus Jakarta Sans', Arial, sans-serif" font-weight="800" font-size="20" fill="#0A0A0A">SAVE</text>
  <text x="60" y="42" font-family="'Plus Jakarta Sans', Arial, sans-serif" font-weight="800" font-size="20" fill="#40B2F9">US</text>
</svg>
